<?xml version="1.0" encoding="UTF-8"?>
<!DOCTYPE svg PUBLIC "-//W3C//DTD SVG 1.1//EN" "http://www.w3.org/Graphics/SVG/1.1/DTD/svg11.dtd">
<svg xmlns="http://www.w3.org/2000/svg" version="1.1" width="230px" height="500px" style="shape-rendering:geometricPrecision; text-rendering:geometricPrecision; image-rendering:optimizeQuality; fill-rule:evenodd; clip-rule:evenodd" xmlns:xlink="http://www.w3.org/1999/xlink">
<g><path style="opacity:0.857" fill="#b89e64" d="M 108.5,-0.5 C 112.833,-0.5 117.167,-0.5 121.5,-0.5C 123.09,3.09752 124.59,6.76419 126,10.5C 128.926,12.1795 130.759,14.6795 131.5,18C 131.012,19.584 130.012,20.7506 128.5,21.5C 127.499,24.1725 126.499,26.8392 125.5,29.5C 124.604,28.4937 123.938,28.4937 123.5,29.5C 124.786,48.9553 124.786,68.622 123.5,88.5C 124.325,89.3857 125.325,89.719 126.5,89.5C 127.139,91.7604 128.306,93.7604 130,95.5C 131.444,93.8446 133.278,93.178 135.5,93.5C 135.336,96.1873 135.503,98.854 136,101.5C 140.615,98.0538 144.781,94.0538 148.5,89.5C 149.325,88.6143 150.325,88.281 151.5,88.5C 151.184,92.5246 151.017,96.5246 151,100.5C 161.377,107.519 169.211,116.852 174.5,128.5C 173.016,131.546 173.85,133.879 177,135.5C 177.735,137.871 178.568,140.205 179.5,142.5C 179.167,142.833 178.833,143.167 178.5,143.5C 165.901,140.183 153.234,137.183 140.5,134.5C 140.905,130.952 140.405,127.619 139,124.5C 136.636,126.363 134.136,128.029 131.5,129.5C 131.167,131 130.833,132.5 130.5,134C 131.416,137.432 132.083,140.932 132.5,144.5C 131.5,144.5 130.5,144.5 129.5,144.5C 129.5,145.5 129.5,146.5 129.5,147.5C 159.308,147.827 188.974,147.827 218.5,147.5C 218.351,148.552 218.517,149.552 219,150.5C 220.685,152.017 222.185,153.684 223.5,155.5C 216.648,166.552 209.314,177.218 201.5,187.5C 200.28,186.289 199.113,186.289 198,187.5C 197.798,189.256 197.298,190.922 196.5,192.5C 193.588,193.345 192.588,195.012 193.5,197.5C 191.929,199.882 191.096,202.549 191,205.5C 171.761,233.637 152.761,261.97 134,290.5C 133.816,307.17 133.816,323.837 134,340.5C 133.028,342.305 131.861,343.972 130.5,345.5C 134.901,354.238 135.567,363.238 132.5,372.5C 137.844,372.666 143.177,372.499 148.5,372C 149.931,371.535 151.097,370.701 152,369.5C 154.981,359.039 158.815,349.039 163.5,339.5C 158.551,340.041 153.884,339.208 149.5,337C 147.043,335.488 147.043,334.154 149.5,333C 147.126,330.961 145.126,328.628 143.5,326C 145.567,325.464 147.401,325.964 149,327.5C 149.75,326.874 150.584,326.374 151.5,326C 150.289,325.107 150.289,324.274 151.5,323.5C 154.686,326.521 158.02,329.354 161.5,332C 163.134,332.494 164.801,332.66 166.5,332.5C 166.296,328.78 167.296,325.447 169.5,322.5C 171.116,323.115 172.449,324.115 173.5,325.5C 176.388,320.562 177.555,315.229 177,309.5C 175.507,311.56 173.674,311.893 171.5,310.5C 170.458,307.577 169.125,304.91 167.5,302.5C 163.949,304.437 160.283,304.771 156.5,303.5C 156.833,302.833 157.167,302.167 157.5,301.5C 154.937,297.857 155.27,294.357 158.5,291C 153.492,289.164 149.492,285.997 146.5,281.5C 152.78,279.534 159.113,279.201 165.5,280.5C 165.833,280.167 166.167,279.833 166.5,279.5C 165.5,278.167 164.5,276.833 163.5,275.5C 163.808,274.692 164.308,274.025 165,273.5C 166.385,274.551 167.385,275.884 168,277.5C 169.411,271.775 170.911,266.108 172.5,260.5C 176.949,263.151 179.782,267.151 181,272.5C 182.156,271.007 182.99,271.174 183.5,273C 182.813,274.162 182.647,275.328 183,276.5C 188.859,273.324 195.025,271.991 201.5,272.5C 199.476,278.355 195.81,282.855 190.5,286C 193.266,287.467 195.766,289.3 198,291.5C 199.451,296.885 197.617,298.551 192.5,296.5C 191.77,298.341 191.103,300.175 190.5,302C 186.756,302.929 183.256,302.429 180,300.5C 180.125,306.136 180.458,311.802 181,317.5C 184.559,310.968 190.059,307.301 197.5,306.5C 199.522,302.65 202.522,301.317 206.5,302.5C 207.167,301.833 207.833,301.167 208.5,300.5C 209.826,301.99 211.326,303.324 213,304.5C 213.965,302.74 215.132,302.406 216.5,303.5C 215.968,305.741 214.635,307.241 212.5,308C 214.143,311.64 213.476,314.807 210.5,317.5C 211.052,319.003 211.052,320.669 210.5,322.5C 209.448,322.649 208.448,322.483 207.5,322C 208.337,320.989 208.67,319.822 208.5,318.5C 204.669,318.751 201.336,317.584 198.5,315C 197.62,313.644 197.286,312.144 197.5,310.5C 192.251,310.875 188.085,313.208 185,317.5C 183.291,320.418 181.458,323.252 179.5,326C 181.488,326.18 183.488,326.014 185.5,325.5C 186.549,329.831 184.882,331.997 180.5,332C 184.841,332.77 189.008,332.27 193,330.5C 193.5,331 194,331.5 194.5,332C 193.044,333.745 191.711,335.578 190.5,337.5C 188.291,338.106 186.124,338.773 184,339.5C 183.51,340.793 183.343,342.127 183.5,343.5C 179.885,343.794 176.718,342.794 174,340.5C 174.071,346.448 171.404,348.448 166,346.5C 161.385,353.17 158.218,360.503 156.5,368.5C 157.145,370.432 158.479,371.599 160.5,372C 166.5,372.667 172.5,372.667 178.5,372C 184.833,366.333 191.167,360.667 197.5,355C 198.944,354.219 200.277,354.386 201.5,355.5C 200.748,359.23 202.082,360.063 205.5,358C 204.09,357.632 203.09,356.799 202.5,355.5C 202.88,353.979 203.046,352.313 203,350.5C 211.584,342.471 220.418,334.805 229.5,327.5C 229.5,329.167 229.5,330.833 229.5,332.5C 222.736,351.29 216.236,370.29 210,389.5C 208.274,390.576 206.441,390.743 204.5,390C 205.696,389.346 205.696,388.846 204.5,388.5C 201.606,390.052 200.94,392.052 202.5,394.5C 204.323,393.253 206.323,392.586 208.5,392.5C 208.917,398.369 206.25,401.036 200.5,400.5C 190.705,399.394 180.705,399.394 170.5,400.5C 165.746,400.466 161.246,399.799 157,398.5C 149.38,400.845 141.547,401.845 133.5,401.5C 133.875,418.535 133.375,435.535 132,452.5C 127.934,468.532 122.767,484.199 116.5,499.5C 115.5,499.5 114.5,499.5 113.5,499.5C 109.002,488.51 105.835,477.177 104,465.5C 97.6497,455.568 96.1497,444.901 99.5,433.5C 97.8145,426.131 96.8145,418.631 96.5,411C 96.3934,407.795 97.0601,404.795 98.5,402C 91.0667,401.911 83.7334,401.078 76.5,399.5C 67.2885,401.717 57.9551,402.05 48.5,400.5C 44.6475,395.392 40.6475,395.225 36.5,400C 25.8389,400.685 15.1722,401.185 4.5,401.5C 4.92369,398.333 6.59036,395.999 9.5,394.5C 10.154,392.885 10.654,391.218 11,389.5C 35.1626,353.497 58.1626,318.83 80,285.5C 85.8175,277.878 91.1509,269.878 96,261.5C 96.901,252.184 97.5676,242.85 98,233.5C 100,231.5 100,229.5 98,227.5C 98.1389,213.556 97.4722,199.556 96,185.5C 93.8358,182.553 93.0025,179.219 93.5,175.5C 82.8036,174.219 72.1369,174.386 61.5,176C 58.5,178.333 55.5,180.667 52.5,183C 51.552,183.483 50.552,183.649 49.5,183.5C 49.5,182.5 49.5,181.5 49.5,180.5C 48.5,180.5 47.5,180.5 46.5,180.5C 44.8568,183.995 43.5235,187.329 42.5,190.5C 28.1482,201.191 13.8149,211.858 -0.5,222.5C -0.5,221.167 -0.5,219.833 -0.5,218.5C 1.44851,213.923 3.44851,209.256 5.5,204.5C 7.07774,203.702 8.7444,203.202 10.5,203C 9.12794,201.758 8.12794,200.258 7.5,198.5C 10.0698,189.272 14.0698,180.772 19.5,173C 18.4238,171.274 18.2571,169.441 19,167.5C 21.5,161.167 24,154.833 26.5,148.5C 29.7844,147.343 33.1177,147.176 36.5,148C 37.2106,149.255 38.044,150.421 39,151.5C 43.0742,147.53 47.9075,146.53 53.5,148.5C 52.4125,150.105 53.0792,150.771 55.5,150.5C 58.0278,150.237 60.3611,149.404 62.5,148C 75.4957,147.5 88.4957,147.333 101.5,147.5C 101.5,146.5 101.5,145.5 101.5,144.5C 100.5,144.5 99.5,144.5 98.5,144.5C 98.8434,140.961 99.5101,137.461 100.5,134C 100.167,132.5 99.8333,131 99.5,129.5C 96.4036,127.869 93.5702,125.869 91,123.5C 90.7931,127.089 90.2931,130.589 89.5,134C 84.5652,135.994 79.5652,136.827 74.5,136.5C 67.2001,139.91 59.5334,142.244 51.5,143.5C 55.0904,126.096 64.0904,112.096 78.5,101.5C 79.1667,97.1667 79.8333,92.8333 80.5,88.5C 85.1586,92.99 89.9919,97.3233 95,101.5C 95.4974,98.854 95.6641,96.1873 95.5,93.5C 97.5914,93.3184 99.5914,93.6518 101.5,94.5C 102.95,93.1502 103.617,91.4835 103.5,89.5C 104.5,89.5 105.5,89.5 106.5,89.5C 105.276,69.827 105.276,50.1604 106.5,30.5C 103.779,28.205 102.279,25.205 102,21.5C 100.926,20.3816 99.7598,19.3816 98.5,18.5C 99.5389,15.0787 101.539,12.4121 104.5,10.5C 106.125,6.92049 107.459,3.25382 108.5,-0.5 Z M 111.5,3.5 C 113.924,3.19244 116.257,3.52577 118.5,4.5C 119.796,9.60385 122.463,13.7705 126.5,17C 124.46,19.1851 123.126,21.6851 122.5,24.5C 113.997,27.7436 107.997,25.2436 104.5,17C 108.586,13.3253 110.92,8.82535 111.5,3.5 Z M 118.5,31.5 C 117.711,31.2172 117.044,30.7172 116.5,30C 117.816,29.4719 118.483,29.9719 118.5,31.5 Z M 111.5,37.5 C 113.167,38.1667 114.833,38.8333 116.5,39.5C 116.5,40.1667 116.5,40.8333 116.5,41.5C 115.5,41.5 114.5,41.5 113.5,41.5C 113.267,39.9382 112.6,38.6049 111.5,37.5 Z M 118.5,49.5 C 118.5,50.8333 117.833,51.5 116.5,51.5C 116.833,50.5 117.5,49.8333 118.5,49.5 Z M 113.5,51.5 C 114.5,51.5 115.5,51.5 116.5,51.5C 116.5,52.1667 116.5,52.8333 116.5,53.5C 115.391,53.5569 114.391,53.8902 113.5,54.5C 113.5,53.5 113.5,52.5 113.5,51.5 Z M 113.5,54.5 C 111.685,58.7678 111.018,59.1012 111.5,55.5C 111.957,54.7025 112.624,54.3691 113.5,54.5 Z M 113.5,63.5 C 114.391,64.1098 115.391,64.4431 116.5,64.5C 116.5,65.1667 116.5,65.8333 116.5,66.5C 115.5,66.5 114.5,66.5 113.5,66.5C 113.5,65.5 113.5,64.5 113.5,63.5 Z M 116.5,66.5 C 117.833,66.5 118.5,67.1667 118.5,68.5C 117.5,68.1667 116.833,67.5 116.5,66.5 Z M 117.5,75.5 C 117.517,73.9719 118.184,73.4719 119.5,74C 118.956,74.7172 118.289,75.2172 117.5,75.5 Z M 112.5,75.5 C 113.833,75.8333 115.167,76.1667 116.5,76.5C 116.5,77.1667 116.5,77.8333 116.5,78.5C 115.5,78.5 114.5,78.5 113.5,78.5C 113.443,77.391 113.11,76.391 112.5,75.5 Z M 113.5,78.5 C 113.315,80.1958 112.481,81.5291 111,82.5C 110.721,80.5878 111.554,79.2544 113.5,78.5 Z M 118.5,85.5 C 119.688,87.4959 119.021,88.3293 116.5,88C 117.381,87.2917 118.047,86.4584 118.5,85.5 Z M 129.5,171.5 C 125.833,171.5 122.167,171.5 118.5,171.5C 119.193,165.995 117.36,164.329 113,166.5C 112.506,168.134 112.34,169.801 112.5,171.5C 108.833,171.5 105.167,171.5 101.5,171.5C 104.777,167.85 106.611,163.517 107,158.5C 108.878,156.957 110.378,155.124 111.5,153C 107.045,151.937 105.379,149.104 106.5,144.5C 107.833,144.5 109.167,144.5 110.5,144.5C 110.5,142.5 110.5,140.5 110.5,138.5C 108.833,138.5 107.167,138.5 105.5,138.5C 105.653,132.131 105.32,125.797 104.5,119.5C 101.976,120.812 99.3088,121.312 96.5,121C 93.8397,119.173 91.5064,117.006 89.5,114.5C 88.6667,115.5 87.8333,116.5 87,117.5C 85.7482,121.678 84.5816,125.844 83.5,130C 75.4932,132.005 67.4932,133.671 59.5,135C 60.4601,133.581 61.2935,132.081 62,130.5C 65.7931,129.577 66.9598,127.41 65.5,124C 69.9618,115.704 76.2951,109.204 84.5,104.5C 85.2508,103.624 85.7508,102.624 86,101.5C 87.3782,103.213 89.0448,104.547 91,105.5C 91.4828,106.448 91.6495,107.448 91.5,108.5C 97.1143,109.315 102.614,110.648 108,112.5C 108.5,112 109,111.5 109.5,111C 107.704,106.063 104.704,102.063 100.5,99C 110.474,95.7029 120.474,95.7029 130.5,99C 125.053,102.086 122.386,106.586 122.5,112.5C 130.459,110.43 137.959,107.43 145,103.5C 146.833,104.667 148.667,105.833 150.5,107C 151.923,110.092 154.257,112.092 157.5,113C 174.63,133.307 171.297,138.807 147.5,129.5C 146.214,123.809 144.047,118.476 141,113.5C 138.333,117.5 135,120.833 131,123.5C 130.044,122.421 129.211,121.255 128.5,120C 127.517,119.409 126.85,119.743 126.5,121C 124.904,126.722 124.237,132.555 124.5,138.5C 123.167,138.5 121.833,138.5 120.5,138.5C 120.5,140.5 120.5,142.5 120.5,144.5C 121.5,144.5 122.5,144.5 123.5,144.5C 123.785,146.288 123.452,147.955 122.5,149.5C 120.571,148.62 118.737,147.62 117,146.5C 116.5,146.833 116,147.167 115.5,147.5C 117.522,150.356 120.022,152.689 123,154.5C 122.899,161.143 125.066,166.81 129.5,171.5 Z M 101.5,171.5 C 101.549,174.099 102.549,176.266 104.5,178C 103.552,178.483 102.552,178.649 101.5,178.5C 101.33,179.822 101.663,180.989 102.5,182C 105.099,182.769 107.599,182.602 110,181.5C 111.362,184.236 113.196,186.569 115.5,188.5C 117.333,186.167 119.167,183.833 121,181.5C 124.039,182.966 126.872,182.633 129.5,180.5C 128.737,179.281 127.737,178.281 126.5,177.5C 128.038,175.757 129.038,173.757 129.5,171.5C 130.117,171.611 130.617,171.944 131,172.5C 131.965,176.782 131.298,180.782 129,184.5C 128.667,189.167 128.333,193.833 128,198.5C 127.293,200.081 126.46,201.581 125.5,203C 127.18,203.347 128.18,204.347 128.5,206C 126.644,208.536 126.311,211.202 127.5,214C 119.464,226.569 111.297,239.069 103,251.5C 103.575,246.155 103.575,240.822 103,235.5C 108.514,227.989 114.014,220.489 119.5,213C 119.15,211.743 118.483,211.409 117.5,212C 112.686,215.165 107.852,218.332 103,221.5C 102.202,218.289 102.702,215.289 104.5,212.5C 103.104,211.148 102.437,209.481 102.5,207.5C 103.532,197.365 102.532,187.198 99.5,177C 99.6667,175.5 99.8333,174 100,172.5C 100.383,171.944 100.883,171.611 101.5,171.5 Z M 145.5,173.5 C 147.951,174.894 150.618,175.728 153.5,176C 147.371,185.76 140.871,195.26 134,204.5C 133.333,198.833 133.333,193.167 134,187.5C 136.13,183.828 136.963,179.828 136.5,175.5C 139.877,175.932 142.877,175.265 145.5,173.5 Z M 114.5,176.5 C 118.637,179.605 117.971,180.771 112.5,180C 113.823,179.184 114.489,178.017 114.5,176.5 Z M 176.5,180.5 C 177.251,179.427 178.251,179.26 179.5,180C 174.793,188.581 169.96,197.081 165,205.5C 164.805,207.207 164.805,208.874 165,210.5C 164,211.167 163,211.833 162,212.5C 157.251,219.332 153.584,226.665 151,234.5C 150,235.167 149,235.833 148,236.5C 146.545,239.912 144.712,243.079 142.5,246C 139.588,247.373 136.754,248.873 134,250.5C 132.958,244.436 133.458,238.602 135.5,233C 149.753,215.803 163.753,198.469 177.5,181C 177.272,180.601 176.938,180.435 176.5,180.5 Z M 120.5,265.5 C 121.972,269.919 122.638,274.586 122.5,279.5C 117.826,280.669 113.326,282.336 109,284.5C 108.667,283.833 108.333,283.167 108,282.5C 107.793,278.911 107.293,275.411 106.5,272C 111.107,269.528 115.773,267.361 120.5,265.5 Z M 190.5,292.5 C 191.922,292.709 193.255,293.209 194.5,294C 192.537,294.844 191.204,294.344 190.5,292.5 Z M 51.5,368.5 C 62.9173,346.636 74.4173,325.303 86,304.5C 87.9251,302.787 90.0918,301.453 92.5,300.5C 93,299.5 93.5,298.5 94,297.5C 95.0113,298.337 96.1779,298.67 97.5,298.5C 97.8967,303.959 97.3967,309.292 96,314.5C 81.7576,332.313 66.9243,350.313 51.5,368.5 Z M 108.5,329.5 C 114.741,319.358 121.241,309.358 128,299.5C 128.667,311.833 128.667,324.167 128,336.5C 121.378,334.46 114.878,332.126 108.5,329.5 Z M 174.5,301.5 C 176.465,301.948 176.798,302.948 175.5,304.5C 174.614,303.675 174.281,302.675 174.5,301.5 Z M 108.5,329.5 C 113.044,336.552 118.544,342.886 125,348.5C 126.265,351.461 127.431,354.461 128.5,357.5C 122.241,361.898 116.408,366.898 111,372.5C 110.409,373.483 110.743,374.15 112,374.5C 113.138,374.011 114.305,373.678 115.5,373.5C 112.846,375.46 111.179,378.127 110.5,381.5C 111.391,382.59 112.391,382.59 113.5,381.5C 116.675,378.994 119.009,375.828 120.5,372C 119.434,370.841 119.767,370.008 121.5,369.5C 122.648,373.161 124.814,376.161 128,378.5C 128.826,385.608 128.326,392.608 126.5,399.5C 127.098,400.795 127.598,402.128 128,403.5C 128.825,420.563 128.159,437.563 126,454.5C 122.902,464.813 119.569,475.146 116,485.5C 115.667,485.833 115.333,486.167 115,486.5C 113.303,482.41 111.803,478.243 110.5,474C 112.227,471.379 113.56,468.545 114.5,465.5C 112.146,462.312 109.312,459.645 106,457.5C 104.373,453.09 103.207,448.59 102.5,444C 104.735,439.105 107.735,434.772 111.5,431C 108.608,428.964 105.774,426.797 103,424.5C 102.5,418.175 102.334,411.842 102.5,405.5C 105.314,405.597 107.314,404.431 108.5,402C 106.8,398.768 104.966,395.601 103,392.5C 101.56,385.293 102.726,378.626 106.5,372.5C 105.397,368.902 104.063,365.402 102.5,362C 103.394,358.224 103.728,354.39 103.5,350.5C 107.353,349.655 110.019,347.321 111.5,343.5C 108.216,341.883 105.549,339.55 103.5,336.5C 104.943,333.923 106.61,331.59 108.5,329.5 Z M 99.5,341.5 C 100.289,341.783 100.956,342.283 101.5,343C 100.711,345.365 99.5442,347.532 98,349.5C 97.5022,351.527 97.6689,353.527 98.5,355.5C 95.4718,361.325 96.1385,366.658 100.5,371.5C 93.5237,372.664 86.5237,372.831 79.5,372C 81.3628,369.636 83.0295,367.136 84.5,364.5C 83.675,363.614 82.675,363.281 81.5,363.5C 81.5,362.5 81.5,361.5 81.5,360.5C 84.7553,360.986 87.422,359.986 89.5,357.5C 92.8442,352.139 96.1776,346.805 99.5,341.5 Z M 207.5,353.5 C 210.137,355.154 209.803,355.654 206.5,355C 207.056,354.617 207.389,354.117 207.5,353.5 Z M 123.5,368.5 C 125.488,366.535 126.988,364.202 128,361.5C 128.975,365.57 127.475,367.903 123.5,368.5 Z"/></g>
<g><path style="opacity:0.665" fill="#b89e64" d="M 114.5,105.5 C 116.074,105.937 117.241,106.937 118,108.5C 119.635,111.632 121.468,114.632 123.5,117.5C 120.123,122.977 117.456,128.643 115.5,134.5C 114.522,134.023 113.689,133.357 113,132.5C 112.667,130.167 112.333,127.833 112,125.5C 110.247,122.995 108.747,120.329 107.5,117.5C 109.845,113.472 112.178,109.472 114.5,105.5 Z"/></g>
<g><path style="opacity:0.589" fill="#b89e64" d="M 129.5,171.5 C 129.038,173.757 128.038,175.757 126.5,177.5C 127.737,178.281 128.737,179.281 129.5,180.5C 126.872,182.633 124.039,182.966 121,181.5C 119.167,183.833 117.333,186.167 115.5,188.5C 113.196,186.569 111.362,184.236 110,181.5C 107.599,182.602 105.099,182.769 102.5,182C 101.663,180.989 101.33,179.822 101.5,178.5C 102.552,178.649 103.552,178.483 104.5,178C 102.549,176.266 101.549,174.099 101.5,171.5C 105.167,171.5 108.833,171.5 112.5,171.5C 112.34,169.801 112.506,168.134 113,166.5C 117.36,164.329 119.193,165.995 118.5,171.5C 122.167,171.5 125.833,171.5 129.5,171.5 Z M 114.5,176.5 C 114.489,178.017 113.823,179.184 112.5,180C 117.971,180.771 118.637,179.605 114.5,176.5 Z"/></g>
<g><path style="opacity:0.489" fill="#b89e64" d="M 121.5,449.5 C 123.293,449.884 124.293,451.05 124.5,453C 123.372,455.296 121.705,457.129 119.5,458.5C 119.167,457.333 118.833,456.167 118.5,455C 118.685,452.624 119.685,450.791 121.5,449.5 Z"/></g>
</svg>
